<mxfile host="app.diagrams.net" modified="2024-02-27T18:48:01.959Z" agent="Mozilla/5.0 (X11; Ubuntu; Linux x86_64; rv:123.0) Gecko/20100101 Firefox/123.0" etag="BeaZD7IZibHZVGYJfD9h" version="23.1.7" type="github">
  <diagram id="C5RBs43oDa-KdzZeNtuy" name="Page-1">
    <mxGraphModel dx="3583" dy="1590" grid="1" gridSize="10" guides="1" tooltips="1" connect="1" arrows="1" fold="1" page="1" pageScale="1" pageWidth="827" pageHeight="1169" math="0" shadow="0">
      <root>
        <mxCell id="WIyWlLk6GJQsqaUBKTNV-0" />
        <mxCell id="WIyWlLk6GJQsqaUBKTNV-1" parent="WIyWlLk6GJQsqaUBKTNV-0" />
        <mxCell id="nHGxrbIbcNER2tS7pfmt-4" value="" style="edgeStyle=orthogonalEdgeStyle;rounded=0;sketch=1;hachureGap=4;jiggle=2;curveFitting=1;orthogonalLoop=1;jettySize=auto;html=1;fontFamily=Helvetica;" edge="1" parent="WIyWlLk6GJQsqaUBKTNV-1" source="nHGxrbIbcNER2tS7pfmt-0" target="nHGxrbIbcNER2tS7pfmt-2">
          <mxGeometry relative="1" as="geometry" />
        </mxCell>
        <mxCell id="nHGxrbIbcNER2tS7pfmt-45" value="" style="edgeStyle=orthogonalEdgeStyle;rounded=0;sketch=1;hachureGap=4;jiggle=2;curveFitting=1;orthogonalLoop=1;jettySize=auto;html=1;exitX=0.145;exitY=0.855;exitDx=0;exitDy=0;exitPerimeter=0;" edge="1" parent="WIyWlLk6GJQsqaUBKTNV-1" source="nHGxrbIbcNER2tS7pfmt-0" target="nHGxrbIbcNER2tS7pfmt-44">
          <mxGeometry relative="1" as="geometry" />
        </mxCell>
        <mxCell id="nHGxrbIbcNER2tS7pfmt-101" value="" style="edgeStyle=orthogonalEdgeStyle;rounded=0;sketch=1;hachureGap=4;jiggle=2;curveFitting=1;orthogonalLoop=1;jettySize=auto;html=1;" edge="1" parent="WIyWlLk6GJQsqaUBKTNV-1" source="nHGxrbIbcNER2tS7pfmt-0" target="nHGxrbIbcNER2tS7pfmt-100">
          <mxGeometry relative="1" as="geometry" />
        </mxCell>
        <mxCell id="nHGxrbIbcNER2tS7pfmt-0" value="COMENZAR" style="strokeWidth=2;html=1;shape=mxgraph.flowchart.start_2;whiteSpace=wrap;sketch=1;hachureGap=4;jiggle=2;curveFitting=1;fontFamily=Helvetica;" vertex="1" parent="WIyWlLk6GJQsqaUBKTNV-1">
          <mxGeometry x="360" y="80" width="100" height="100" as="geometry" />
        </mxCell>
        <mxCell id="nHGxrbIbcNER2tS7pfmt-1" value="FIN" style="strokeWidth=2;html=1;shape=mxgraph.flowchart.start_2;whiteSpace=wrap;sketch=1;hachureGap=4;jiggle=2;curveFitting=1;fontFamily=Helvetica;" vertex="1" parent="WIyWlLk6GJQsqaUBKTNV-1">
          <mxGeometry x="440" y="1160" width="100" height="100" as="geometry" />
        </mxCell>
        <mxCell id="nHGxrbIbcNER2tS7pfmt-14" value="" style="edgeStyle=orthogonalEdgeStyle;rounded=0;sketch=1;hachureGap=4;jiggle=2;curveFitting=1;orthogonalLoop=1;jettySize=auto;html=1;fontFamily=Helvetica;" edge="1" parent="WIyWlLk6GJQsqaUBKTNV-1" source="nHGxrbIbcNER2tS7pfmt-2" target="nHGxrbIbcNER2tS7pfmt-13">
          <mxGeometry relative="1" as="geometry" />
        </mxCell>
        <mxCell id="nHGxrbIbcNER2tS7pfmt-2" value="Recibo datos leidos" style="shape=parallelogram;html=1;strokeWidth=2;perimeter=parallelogramPerimeter;whiteSpace=wrap;rounded=1;arcSize=12;size=0.23;sketch=1;hachureGap=4;jiggle=2;curveFitting=1;fontFamily=Helvetica;" vertex="1" parent="WIyWlLk6GJQsqaUBKTNV-1">
          <mxGeometry x="340" y="240" width="140" height="60" as="geometry" />
        </mxCell>
        <mxCell id="nHGxrbIbcNER2tS7pfmt-26" value="" style="edgeStyle=orthogonalEdgeStyle;rounded=0;sketch=1;hachureGap=4;jiggle=2;curveFitting=1;orthogonalLoop=1;jettySize=auto;html=1;fontFamily=Helvetica;" edge="1" parent="WIyWlLk6GJQsqaUBKTNV-1" target="nHGxrbIbcNER2tS7pfmt-6">
          <mxGeometry relative="1" as="geometry">
            <mxPoint x="414" y="570" as="sourcePoint" />
          </mxGeometry>
        </mxCell>
        <mxCell id="nHGxrbIbcNER2tS7pfmt-15" style="edgeStyle=orthogonalEdgeStyle;rounded=0;sketch=1;hachureGap=4;jiggle=2;curveFitting=1;orthogonalLoop=1;jettySize=auto;html=1;exitX=1;exitY=0.5;exitDx=0;exitDy=0;exitPerimeter=0;entryX=1;entryY=0;entryDx=0;entryDy=0;dashed=1;fontFamily=Helvetica;" edge="1" parent="WIyWlLk6GJQsqaUBKTNV-1" source="nHGxrbIbcNER2tS7pfmt-6" target="nHGxrbIbcNER2tS7pfmt-2">
          <mxGeometry relative="1" as="geometry">
            <Array as="points">
              <mxPoint x="630" y="710" />
              <mxPoint x="630" y="240" />
            </Array>
          </mxGeometry>
        </mxCell>
        <mxCell id="nHGxrbIbcNER2tS7pfmt-16" value="No" style="edgeLabel;html=1;align=center;verticalAlign=middle;resizable=0;points=[];sketch=1;hachureGap=4;jiggle=2;curveFitting=1;fontFamily=Helvetica;" vertex="1" connectable="0" parent="nHGxrbIbcNER2tS7pfmt-15">
          <mxGeometry x="0.1754" y="-4" relative="1" as="geometry">
            <mxPoint as="offset" />
          </mxGeometry>
        </mxCell>
        <mxCell id="nHGxrbIbcNER2tS7pfmt-21" value="" style="edgeStyle=orthogonalEdgeStyle;rounded=0;sketch=1;hachureGap=4;jiggle=2;curveFitting=1;orthogonalLoop=1;jettySize=auto;html=1;dashed=1;entryX=0.5;entryY=0;entryDx=0;entryDy=0;fontFamily=Helvetica;" edge="1" parent="WIyWlLk6GJQsqaUBKTNV-1" source="nHGxrbIbcNER2tS7pfmt-6" target="nHGxrbIbcNER2tS7pfmt-27">
          <mxGeometry relative="1" as="geometry">
            <mxPoint x="414" y="810" as="targetPoint" />
          </mxGeometry>
        </mxCell>
        <mxCell id="nHGxrbIbcNER2tS7pfmt-22" value="Si" style="edgeLabel;html=1;align=center;verticalAlign=middle;resizable=0;points=[];sketch=1;hachureGap=4;jiggle=2;curveFitting=1;fontFamily=Helvetica;" vertex="1" connectable="0" parent="nHGxrbIbcNER2tS7pfmt-21">
          <mxGeometry x="-0.0571" y="2" relative="1" as="geometry">
            <mxPoint as="offset" />
          </mxGeometry>
        </mxCell>
        <mxCell id="nHGxrbIbcNER2tS7pfmt-6" value="3555444?" style="strokeWidth=2;html=1;shape=mxgraph.flowchart.decision;whiteSpace=wrap;sketch=1;hachureGap=4;jiggle=2;curveFitting=1;fontFamily=Helvetica;" vertex="1" parent="WIyWlLk6GJQsqaUBKTNV-1">
          <mxGeometry x="364" y="660" width="100" height="100" as="geometry" />
        </mxCell>
        <mxCell id="nHGxrbIbcNER2tS7pfmt-23" value="" style="edgeStyle=orthogonalEdgeStyle;rounded=0;sketch=1;hachureGap=4;jiggle=2;curveFitting=1;orthogonalLoop=1;jettySize=auto;html=1;fontFamily=Helvetica;" edge="1" parent="WIyWlLk6GJQsqaUBKTNV-1" target="nHGxrbIbcNER2tS7pfmt-1">
          <mxGeometry relative="1" as="geometry">
            <mxPoint x="414" y="870" as="sourcePoint" />
          </mxGeometry>
        </mxCell>
        <mxCell id="nHGxrbIbcNER2tS7pfmt-25" value="" style="edgeStyle=orthogonalEdgeStyle;rounded=0;sketch=1;hachureGap=4;jiggle=2;curveFitting=1;orthogonalLoop=1;jettySize=auto;html=1;fontFamily=Helvetica;" edge="1" parent="WIyWlLk6GJQsqaUBKTNV-1" source="nHGxrbIbcNER2tS7pfmt-13">
          <mxGeometry relative="1" as="geometry">
            <mxPoint x="414" y="510" as="targetPoint" />
          </mxGeometry>
        </mxCell>
        <mxCell id="nHGxrbIbcNER2tS7pfmt-13" value="Leo los datos" style="rounded=1;whiteSpace=wrap;html=1;sketch=1;hachureGap=4;jiggle=2;curveFitting=1;fontFamily=Helvetica;" vertex="1" parent="WIyWlLk6GJQsqaUBKTNV-1">
          <mxGeometry x="354" y="360" width="120" height="60" as="geometry" />
        </mxCell>
        <mxCell id="nHGxrbIbcNER2tS7pfmt-32" value="" style="edgeStyle=orthogonalEdgeStyle;rounded=0;sketch=1;hachureGap=4;jiggle=2;curveFitting=1;orthogonalLoop=1;jettySize=auto;html=1;fontFamily=Helvetica;" edge="1" parent="WIyWlLk6GJQsqaUBKTNV-1" source="nHGxrbIbcNER2tS7pfmt-27" target="nHGxrbIbcNER2tS7pfmt-31">
          <mxGeometry relative="1" as="geometry" />
        </mxCell>
        <mxCell id="nHGxrbIbcNER2tS7pfmt-34" value="" style="edgeStyle=orthogonalEdgeStyle;rounded=0;sketch=1;hachureGap=4;jiggle=2;curveFitting=1;orthogonalLoop=1;jettySize=auto;html=1;" edge="1" parent="WIyWlLk6GJQsqaUBKTNV-1" source="nHGxrbIbcNER2tS7pfmt-27" target="nHGxrbIbcNER2tS7pfmt-33">
          <mxGeometry relative="1" as="geometry" />
        </mxCell>
        <mxCell id="nHGxrbIbcNER2tS7pfmt-27" value="&lt;div&gt;Agrego a una lista&lt;/div&gt;" style="rounded=1;whiteSpace=wrap;html=1;absoluteArcSize=1;arcSize=14;strokeWidth=2;sketch=1;hachureGap=4;jiggle=2;curveFitting=1;fontFamily=Helvetica;" vertex="1" parent="WIyWlLk6GJQsqaUBKTNV-1">
          <mxGeometry x="349" y="820" width="130" height="50" as="geometry" />
        </mxCell>
        <mxCell id="nHGxrbIbcNER2tS7pfmt-29" value="Agrego a una lista" style="rounded=1;whiteSpace=wrap;html=1;absoluteArcSize=1;arcSize=14;strokeWidth=2;sketch=1;hachureGap=4;jiggle=2;curveFitting=1;fontFamily=Helvetica;" vertex="1" parent="WIyWlLk6GJQsqaUBKTNV-1">
          <mxGeometry x="354" y="520" width="130" height="50" as="geometry" />
        </mxCell>
        <mxCell id="nHGxrbIbcNER2tS7pfmt-31" value="&lt;div&gt;Recibo lista&lt;/div&gt;" style="shape=parallelogram;perimeter=parallelogramPerimeter;whiteSpace=wrap;html=1;fixedSize=1;rounded=1;arcSize=14;strokeWidth=2;sketch=1;hachureGap=4;jiggle=2;curveFitting=1;fontFamily=Helvetica;" vertex="1" parent="WIyWlLk6GJQsqaUBKTNV-1">
          <mxGeometry x="564" y="815" width="120" height="60" as="geometry" />
        </mxCell>
        <mxCell id="nHGxrbIbcNER2tS7pfmt-36" value="" style="edgeStyle=orthogonalEdgeStyle;rounded=0;sketch=1;hachureGap=4;jiggle=2;curveFitting=1;orthogonalLoop=1;jettySize=auto;html=1;" edge="1" parent="WIyWlLk6GJQsqaUBKTNV-1" source="nHGxrbIbcNER2tS7pfmt-33" target="nHGxrbIbcNER2tS7pfmt-35">
          <mxGeometry relative="1" as="geometry" />
        </mxCell>
        <mxCell id="nHGxrbIbcNER2tS7pfmt-33" value="Lista" style="strokeWidth=2;html=1;shape=mxgraph.flowchart.stored_data;whiteSpace=wrap;sketch=1;hachureGap=4;jiggle=2;curveFitting=1;" vertex="1" parent="WIyWlLk6GJQsqaUBKTNV-1">
          <mxGeometry x="160" y="815" width="100" height="60" as="geometry" />
        </mxCell>
        <mxCell id="nHGxrbIbcNER2tS7pfmt-47" value="" style="edgeStyle=orthogonalEdgeStyle;rounded=0;sketch=1;hachureGap=4;jiggle=2;curveFitting=1;orthogonalLoop=1;jettySize=auto;html=1;" edge="1" parent="WIyWlLk6GJQsqaUBKTNV-1" source="nHGxrbIbcNER2tS7pfmt-35" target="nHGxrbIbcNER2tS7pfmt-46">
          <mxGeometry relative="1" as="geometry" />
        </mxCell>
        <mxCell id="nHGxrbIbcNER2tS7pfmt-78" value="" style="edgeStyle=orthogonalEdgeStyle;rounded=0;sketch=1;hachureGap=4;jiggle=2;curveFitting=1;orthogonalLoop=1;jettySize=auto;html=1;" edge="1" parent="WIyWlLk6GJQsqaUBKTNV-1" source="nHGxrbIbcNER2tS7pfmt-35" target="nHGxrbIbcNER2tS7pfmt-77">
          <mxGeometry relative="1" as="geometry" />
        </mxCell>
        <mxCell id="nHGxrbIbcNER2tS7pfmt-35" value="Recibo lista" style="shape=parallelogram;perimeter=parallelogramPerimeter;whiteSpace=wrap;html=1;fixedSize=1;strokeWidth=2;sketch=1;hachureGap=4;jiggle=2;curveFitting=1;" vertex="1" parent="WIyWlLk6GJQsqaUBKTNV-1">
          <mxGeometry x="150" y="980" width="120" height="35" as="geometry" />
        </mxCell>
        <mxCell id="nHGxrbIbcNER2tS7pfmt-49" value="" style="edgeStyle=orthogonalEdgeStyle;rounded=0;sketch=1;hachureGap=4;jiggle=2;curveFitting=1;orthogonalLoop=1;jettySize=auto;html=1;" edge="1" parent="WIyWlLk6GJQsqaUBKTNV-1" source="nHGxrbIbcNER2tS7pfmt-44" target="nHGxrbIbcNER2tS7pfmt-48">
          <mxGeometry relative="1" as="geometry" />
        </mxCell>
        <mxCell id="nHGxrbIbcNER2tS7pfmt-44" value="Recibo DNI a buscar" style="shape=parallelogram;perimeter=parallelogramPerimeter;whiteSpace=wrap;html=1;fixedSize=1;strokeWidth=2;sketch=1;hachureGap=4;jiggle=2;curveFitting=1;" vertex="1" parent="WIyWlLk6GJQsqaUBKTNV-1">
          <mxGeometry x="-280" y="1015" width="140" height="37.5" as="geometry" />
        </mxCell>
        <mxCell id="nHGxrbIbcNER2tS7pfmt-52" style="edgeStyle=orthogonalEdgeStyle;rounded=0;sketch=1;hachureGap=4;jiggle=2;curveFitting=1;orthogonalLoop=1;jettySize=auto;html=1;exitX=0.5;exitY=1;exitDx=0;exitDy=0;entryX=1;entryY=0.5;entryDx=0;entryDy=0;" edge="1" parent="WIyWlLk6GJQsqaUBKTNV-1" source="nHGxrbIbcNER2tS7pfmt-46" target="nHGxrbIbcNER2tS7pfmt-48">
          <mxGeometry relative="1" as="geometry" />
        </mxCell>
        <mxCell id="nHGxrbIbcNER2tS7pfmt-46" value="Entro en el nodo" style="whiteSpace=wrap;html=1;strokeWidth=2;sketch=1;hachureGap=4;jiggle=2;curveFitting=1;" vertex="1" parent="WIyWlLk6GJQsqaUBKTNV-1">
          <mxGeometry x="-180" y="1100" width="120" height="60" as="geometry" />
        </mxCell>
        <mxCell id="nHGxrbIbcNER2tS7pfmt-58" value="" style="edgeStyle=orthogonalEdgeStyle;rounded=0;sketch=1;hachureGap=4;jiggle=2;curveFitting=1;orthogonalLoop=1;jettySize=auto;html=1;dashed=1;" edge="1" parent="WIyWlLk6GJQsqaUBKTNV-1" source="nHGxrbIbcNER2tS7pfmt-48" target="nHGxrbIbcNER2tS7pfmt-57">
          <mxGeometry relative="1" as="geometry">
            <Array as="points">
              <mxPoint x="-210" y="1310" />
              <mxPoint x="-70" y="1310" />
            </Array>
          </mxGeometry>
        </mxCell>
        <mxCell id="nHGxrbIbcNER2tS7pfmt-65" value="Si" style="edgeLabel;html=1;align=center;verticalAlign=middle;resizable=0;points=[];sketch=1;hachureGap=4;jiggle=2;curveFitting=1;" vertex="1" connectable="0" parent="nHGxrbIbcNER2tS7pfmt-58">
          <mxGeometry x="-0.2033" relative="1" as="geometry">
            <mxPoint as="offset" />
          </mxGeometry>
        </mxCell>
        <mxCell id="nHGxrbIbcNER2tS7pfmt-67" style="edgeStyle=orthogonalEdgeStyle;rounded=0;sketch=1;hachureGap=4;jiggle=2;curveFitting=1;orthogonalLoop=1;jettySize=auto;html=1;exitX=0;exitY=1;exitDx=0;exitDy=0;entryX=0;entryY=0.5;entryDx=0;entryDy=0;dashed=1;" edge="1" parent="WIyWlLk6GJQsqaUBKTNV-1" source="nHGxrbIbcNER2tS7pfmt-48" target="nHGxrbIbcNER2tS7pfmt-59">
          <mxGeometry relative="1" as="geometry">
            <Array as="points">
              <mxPoint x="-234" y="1570" />
            </Array>
          </mxGeometry>
        </mxCell>
        <mxCell id="nHGxrbIbcNER2tS7pfmt-68" value="No" style="edgeLabel;html=1;align=center;verticalAlign=middle;resizable=0;points=[];sketch=1;hachureGap=4;jiggle=2;curveFitting=1;" vertex="1" connectable="0" parent="nHGxrbIbcNER2tS7pfmt-67">
          <mxGeometry x="0.6513" relative="1" as="geometry">
            <mxPoint as="offset" />
          </mxGeometry>
        </mxCell>
        <mxCell id="nHGxrbIbcNER2tS7pfmt-48" value="Es el mismo DNI?" style="rhombus;whiteSpace=wrap;html=1;strokeWidth=2;sketch=1;hachureGap=4;jiggle=2;curveFitting=1;" vertex="1" parent="WIyWlLk6GJQsqaUBKTNV-1">
          <mxGeometry x="-257.5" y="1190" width="95" height="103.75" as="geometry" />
        </mxCell>
        <mxCell id="nHGxrbIbcNER2tS7pfmt-60" value="" style="edgeStyle=orthogonalEdgeStyle;rounded=0;sketch=1;hachureGap=4;jiggle=2;curveFitting=1;orthogonalLoop=1;jettySize=auto;html=1;" edge="1" parent="WIyWlLk6GJQsqaUBKTNV-1" source="nHGxrbIbcNER2tS7pfmt-57" target="nHGxrbIbcNER2tS7pfmt-59">
          <mxGeometry relative="1" as="geometry" />
        </mxCell>
        <mxCell id="nHGxrbIbcNER2tS7pfmt-57" value="Elimino el nodo de la lista." style="whiteSpace=wrap;html=1;strokeWidth=2;sketch=1;hachureGap=4;jiggle=2;curveFitting=1;" vertex="1" parent="WIyWlLk6GJQsqaUBKTNV-1">
          <mxGeometry x="-130" y="1390" width="120" height="44.38" as="geometry" />
        </mxCell>
        <mxCell id="nHGxrbIbcNER2tS7pfmt-63" value="" style="edgeStyle=orthogonalEdgeStyle;rounded=0;sketch=1;hachureGap=4;jiggle=2;curveFitting=1;orthogonalLoop=1;jettySize=auto;html=1;dashed=1;" edge="1" parent="WIyWlLk6GJQsqaUBKTNV-1" source="nHGxrbIbcNER2tS7pfmt-59" target="nHGxrbIbcNER2tS7pfmt-62">
          <mxGeometry relative="1" as="geometry" />
        </mxCell>
        <mxCell id="nHGxrbIbcNER2tS7pfmt-70" value="No" style="edgeLabel;html=1;align=center;verticalAlign=middle;resizable=0;points=[];sketch=1;hachureGap=4;jiggle=2;curveFitting=1;" vertex="1" connectable="0" parent="nHGxrbIbcNER2tS7pfmt-63">
          <mxGeometry x="0.3511" y="-4" relative="1" as="geometry">
            <mxPoint x="1" as="offset" />
          </mxGeometry>
        </mxCell>
        <mxCell id="nHGxrbIbcNER2tS7pfmt-59" value="Es el ultimo nodo?" style="rhombus;whiteSpace=wrap;html=1;strokeWidth=2;sketch=1;hachureGap=4;jiggle=2;curveFitting=1;" vertex="1" parent="WIyWlLk6GJQsqaUBKTNV-1">
          <mxGeometry x="-110" y="1530.0000000000002" width="80" height="80" as="geometry" />
        </mxCell>
        <mxCell id="nHGxrbIbcNER2tS7pfmt-64" style="edgeStyle=orthogonalEdgeStyle;rounded=0;sketch=1;hachureGap=4;jiggle=2;curveFitting=1;orthogonalLoop=1;jettySize=auto;html=1;exitX=0.5;exitY=0;exitDx=0;exitDy=0;entryX=1;entryY=0.5;entryDx=0;entryDy=0;" edge="1" parent="WIyWlLk6GJQsqaUBKTNV-1" source="nHGxrbIbcNER2tS7pfmt-62" target="nHGxrbIbcNER2tS7pfmt-46">
          <mxGeometry relative="1" as="geometry" />
        </mxCell>
        <mxCell id="nHGxrbIbcNER2tS7pfmt-62" value="Me muevo al siguiente nodo" style="whiteSpace=wrap;html=1;strokeWidth=2;sketch=1;hachureGap=4;jiggle=2;curveFitting=1;" vertex="1" parent="WIyWlLk6GJQsqaUBKTNV-1">
          <mxGeometry x="-10" y="1310.0000000000002" width="120" height="60" as="geometry" />
        </mxCell>
        <mxCell id="nHGxrbIbcNER2tS7pfmt-71" style="edgeStyle=orthogonalEdgeStyle;rounded=0;sketch=1;hachureGap=4;jiggle=2;curveFitting=1;orthogonalLoop=1;jettySize=auto;html=1;exitX=0.5;exitY=1;exitDx=0;exitDy=0;entryX=1;entryY=0.5;entryDx=0;entryDy=0;entryPerimeter=0;dashed=1;" edge="1" parent="WIyWlLk6GJQsqaUBKTNV-1" source="nHGxrbIbcNER2tS7pfmt-59" target="nHGxrbIbcNER2tS7pfmt-1">
          <mxGeometry relative="1" as="geometry">
            <Array as="points">
              <mxPoint x="-70" y="1640" />
              <mxPoint x="580" y="1640" />
              <mxPoint x="580" y="1210" />
            </Array>
          </mxGeometry>
        </mxCell>
        <mxCell id="nHGxrbIbcNER2tS7pfmt-72" value="Si" style="edgeLabel;html=1;align=center;verticalAlign=middle;resizable=0;points=[];sketch=1;hachureGap=4;jiggle=2;curveFitting=1;" vertex="1" connectable="0" parent="nHGxrbIbcNER2tS7pfmt-71">
          <mxGeometry x="-0.5093" y="1" relative="1" as="geometry">
            <mxPoint as="offset" />
          </mxGeometry>
        </mxCell>
        <mxCell id="nHGxrbIbcNER2tS7pfmt-80" value="" style="edgeStyle=orthogonalEdgeStyle;rounded=0;sketch=1;hachureGap=4;jiggle=2;curveFitting=1;orthogonalLoop=1;jettySize=auto;html=1;" edge="1" parent="WIyWlLk6GJQsqaUBKTNV-1" source="nHGxrbIbcNER2tS7pfmt-77" target="nHGxrbIbcNER2tS7pfmt-79">
          <mxGeometry relative="1" as="geometry" />
        </mxCell>
        <mxCell id="nHGxrbIbcNER2tS7pfmt-77" value="Recibo el DNI de la lista." style="whiteSpace=wrap;html=1;strokeWidth=2;sketch=1;hachureGap=4;jiggle=2;curveFitting=1;" vertex="1" parent="WIyWlLk6GJQsqaUBKTNV-1">
          <mxGeometry x="150" y="1082.5" width="120" height="60" as="geometry" />
        </mxCell>
        <mxCell id="nHGxrbIbcNER2tS7pfmt-82" value="" style="edgeStyle=orthogonalEdgeStyle;rounded=0;sketch=1;hachureGap=4;jiggle=2;curveFitting=1;orthogonalLoop=1;jettySize=auto;html=1;" edge="1" parent="WIyWlLk6GJQsqaUBKTNV-1" source="nHGxrbIbcNER2tS7pfmt-79" target="nHGxrbIbcNER2tS7pfmt-81">
          <mxGeometry relative="1" as="geometry" />
        </mxCell>
        <mxCell id="nHGxrbIbcNER2tS7pfmt-79" value="Lo descompongo" style="whiteSpace=wrap;html=1;strokeWidth=2;sketch=1;hachureGap=4;jiggle=2;curveFitting=1;" vertex="1" parent="WIyWlLk6GJQsqaUBKTNV-1">
          <mxGeometry x="150" y="1222.5" width="120" height="60" as="geometry" />
        </mxCell>
        <mxCell id="nHGxrbIbcNER2tS7pfmt-91" style="edgeStyle=orthogonalEdgeStyle;rounded=0;sketch=1;hachureGap=4;jiggle=2;curveFitting=1;orthogonalLoop=1;jettySize=auto;html=1;exitX=1;exitY=0.5;exitDx=0;exitDy=0;entryX=0.5;entryY=0;entryDx=0;entryDy=0;dashed=1;" edge="1" parent="WIyWlLk6GJQsqaUBKTNV-1" source="nHGxrbIbcNER2tS7pfmt-81" target="nHGxrbIbcNER2tS7pfmt-87">
          <mxGeometry relative="1" as="geometry" />
        </mxCell>
        <mxCell id="nHGxrbIbcNER2tS7pfmt-94" value="Si" style="edgeLabel;html=1;align=center;verticalAlign=middle;resizable=0;points=[];sketch=1;hachureGap=4;jiggle=2;curveFitting=1;" vertex="1" connectable="0" parent="nHGxrbIbcNER2tS7pfmt-91">
          <mxGeometry x="-0.2046" y="-1" relative="1" as="geometry">
            <mxPoint as="offset" />
          </mxGeometry>
        </mxCell>
        <mxCell id="nHGxrbIbcNER2tS7pfmt-92" value="" style="edgeStyle=orthogonalEdgeStyle;rounded=0;sketch=1;hachureGap=4;jiggle=2;curveFitting=1;orthogonalLoop=1;jettySize=auto;html=1;dashed=1;" edge="1" parent="WIyWlLk6GJQsqaUBKTNV-1" source="nHGxrbIbcNER2tS7pfmt-81" target="nHGxrbIbcNER2tS7pfmt-83">
          <mxGeometry relative="1" as="geometry" />
        </mxCell>
        <mxCell id="nHGxrbIbcNER2tS7pfmt-93" value="Si" style="edgeLabel;html=1;align=center;verticalAlign=middle;resizable=0;points=[];sketch=1;hachureGap=4;jiggle=2;curveFitting=1;" vertex="1" connectable="0" parent="nHGxrbIbcNER2tS7pfmt-92">
          <mxGeometry x="0.1" relative="1" as="geometry">
            <mxPoint as="offset" />
          </mxGeometry>
        </mxCell>
        <mxCell id="nHGxrbIbcNER2tS7pfmt-81" value="Mas pares que impares?" style="rhombus;whiteSpace=wrap;html=1;strokeWidth=2;sketch=1;hachureGap=4;jiggle=2;curveFitting=1;" vertex="1" parent="WIyWlLk6GJQsqaUBKTNV-1">
          <mxGeometry x="160" y="1353.44" width="100" height="96.56" as="geometry" />
        </mxCell>
        <mxCell id="nHGxrbIbcNER2tS7pfmt-83" value="Sumo contador+1" style="shape=parallelogram;perimeter=parallelogramPerimeter;whiteSpace=wrap;html=1;fixedSize=1;strokeWidth=2;sketch=1;hachureGap=4;jiggle=2;curveFitting=1;" vertex="1" parent="WIyWlLk6GJQsqaUBKTNV-1">
          <mxGeometry x="140" y="1550" width="140" height="60" as="geometry" />
        </mxCell>
        <mxCell id="nHGxrbIbcNER2tS7pfmt-90" value="" style="edgeStyle=orthogonalEdgeStyle;rounded=0;sketch=1;hachureGap=4;jiggle=2;curveFitting=1;orthogonalLoop=1;jettySize=auto;html=1;" edge="1" parent="WIyWlLk6GJQsqaUBKTNV-1" source="nHGxrbIbcNER2tS7pfmt-85" target="nHGxrbIbcNER2tS7pfmt-79">
          <mxGeometry relative="1" as="geometry" />
        </mxCell>
        <mxCell id="nHGxrbIbcNER2tS7pfmt-85" value="Avanzo en la lista" style="whiteSpace=wrap;html=1;strokeWidth=2;sketch=1;hachureGap=4;jiggle=2;curveFitting=1;" vertex="1" parent="WIyWlLk6GJQsqaUBKTNV-1">
          <mxGeometry x="310" y="1222.5" width="120" height="60" as="geometry" />
        </mxCell>
        <mxCell id="nHGxrbIbcNER2tS7pfmt-89" style="edgeStyle=orthogonalEdgeStyle;rounded=0;sketch=1;hachureGap=4;jiggle=2;curveFitting=1;orthogonalLoop=1;jettySize=auto;html=1;exitX=1;exitY=0.5;exitDx=0;exitDy=0;entryX=1;entryY=0.5;entryDx=0;entryDy=0;dashed=1;" edge="1" parent="WIyWlLk6GJQsqaUBKTNV-1" source="nHGxrbIbcNER2tS7pfmt-87" target="nHGxrbIbcNER2tS7pfmt-85">
          <mxGeometry relative="1" as="geometry">
            <mxPoint x="460" y="1380" as="targetPoint" />
          </mxGeometry>
        </mxCell>
        <mxCell id="nHGxrbIbcNER2tS7pfmt-95" value="No" style="edgeLabel;html=1;align=center;verticalAlign=middle;resizable=0;points=[];sketch=1;hachureGap=4;jiggle=2;curveFitting=1;" vertex="1" connectable="0" parent="nHGxrbIbcNER2tS7pfmt-89">
          <mxGeometry x="-0.0488" y="-5" relative="1" as="geometry">
            <mxPoint as="offset" />
          </mxGeometry>
        </mxCell>
        <mxCell id="nHGxrbIbcNER2tS7pfmt-98" style="edgeStyle=orthogonalEdgeStyle;rounded=0;sketch=1;hachureGap=4;jiggle=2;curveFitting=1;orthogonalLoop=1;jettySize=auto;html=1;exitX=0.5;exitY=1;exitDx=0;exitDy=0;entryX=0.5;entryY=1;entryDx=0;entryDy=0;entryPerimeter=0;dashed=1;" edge="1" parent="WIyWlLk6GJQsqaUBKTNV-1" source="nHGxrbIbcNER2tS7pfmt-87" target="nHGxrbIbcNER2tS7pfmt-1">
          <mxGeometry relative="1" as="geometry">
            <mxPoint x="420" y="1730" as="targetPoint" />
          </mxGeometry>
        </mxCell>
        <mxCell id="nHGxrbIbcNER2tS7pfmt-99" value="Si" style="edgeLabel;html=1;align=center;verticalAlign=middle;resizable=0;points=[];sketch=1;hachureGap=4;jiggle=2;curveFitting=1;" vertex="1" connectable="0" parent="nHGxrbIbcNER2tS7pfmt-98">
          <mxGeometry x="-0.04" y="-5" relative="1" as="geometry">
            <mxPoint as="offset" />
          </mxGeometry>
        </mxCell>
        <mxCell id="nHGxrbIbcNER2tS7pfmt-87" value="Es el ultimo nodo?" style="rhombus;whiteSpace=wrap;html=1;strokeWidth=2;sketch=1;hachureGap=4;jiggle=2;curveFitting=1;" vertex="1" parent="WIyWlLk6GJQsqaUBKTNV-1">
          <mxGeometry x="310" y="1450" width="80" height="80" as="geometry" />
        </mxCell>
        <mxCell id="nHGxrbIbcNER2tS7pfmt-103" value="" style="edgeStyle=orthogonalEdgeStyle;rounded=0;sketch=1;hachureGap=4;jiggle=2;curveFitting=1;orthogonalLoop=1;jettySize=auto;html=1;" edge="1" parent="WIyWlLk6GJQsqaUBKTNV-1" source="nHGxrbIbcNER2tS7pfmt-100" target="nHGxrbIbcNER2tS7pfmt-102">
          <mxGeometry relative="1" as="geometry" />
        </mxCell>
        <mxCell id="nHGxrbIbcNER2tS7pfmt-100" value="Recibo vector genero Act" style="shape=parallelogram;perimeter=parallelogramPerimeter;whiteSpace=wrap;html=1;fixedSize=1;strokeWidth=2;sketch=1;hachureGap=4;jiggle=2;curveFitting=1;" vertex="1" parent="WIyWlLk6GJQsqaUBKTNV-1">
          <mxGeometry x="-730" y="107.5" width="170" height="45" as="geometry" />
        </mxCell>
        <mxCell id="nHGxrbIbcNER2tS7pfmt-105" value="" style="edgeStyle=orthogonalEdgeStyle;rounded=0;sketch=1;hachureGap=4;jiggle=2;curveFitting=1;orthogonalLoop=1;jettySize=auto;html=1;" edge="1" parent="WIyWlLk6GJQsqaUBKTNV-1" source="nHGxrbIbcNER2tS7pfmt-102" target="nHGxrbIbcNER2tS7pfmt-104">
          <mxGeometry relative="1" as="geometry" />
        </mxCell>
        <mxCell id="nHGxrbIbcNER2tS7pfmt-102" value="Recorro vector&lt;div&gt;&lt;br/&gt;&lt;/div&gt;" style="whiteSpace=wrap;html=1;strokeWidth=2;sketch=1;hachureGap=4;jiggle=2;curveFitting=1;" vertex="1" parent="WIyWlLk6GJQsqaUBKTNV-1">
          <mxGeometry x="-705" y="200" width="120" height="40" as="geometry" />
        </mxCell>
        <mxCell id="nHGxrbIbcNER2tS7pfmt-107" value="" style="edgeStyle=orthogonalEdgeStyle;rounded=0;sketch=1;hachureGap=4;jiggle=2;curveFitting=1;orthogonalLoop=1;jettySize=auto;html=1;dashed=1;" edge="1" parent="WIyWlLk6GJQsqaUBKTNV-1" source="nHGxrbIbcNER2tS7pfmt-104" target="nHGxrbIbcNER2tS7pfmt-106">
          <mxGeometry relative="1" as="geometry" />
        </mxCell>
        <mxCell id="nHGxrbIbcNER2tS7pfmt-124" value="No" style="edgeLabel;html=1;align=center;verticalAlign=middle;resizable=0;points=[];sketch=1;hachureGap=4;jiggle=2;curveFitting=1;" vertex="1" connectable="0" parent="nHGxrbIbcNER2tS7pfmt-107">
          <mxGeometry x="0.0155" relative="1" as="geometry">
            <mxPoint as="offset" />
          </mxGeometry>
        </mxCell>
        <mxCell id="nHGxrbIbcNER2tS7pfmt-109" value="" style="edgeStyle=orthogonalEdgeStyle;rounded=0;sketch=1;hachureGap=4;jiggle=2;curveFitting=1;orthogonalLoop=1;jettySize=auto;html=1;dashed=1;" edge="1" parent="WIyWlLk6GJQsqaUBKTNV-1" source="nHGxrbIbcNER2tS7pfmt-104" target="nHGxrbIbcNER2tS7pfmt-108">
          <mxGeometry relative="1" as="geometry" />
        </mxCell>
        <mxCell id="nHGxrbIbcNER2tS7pfmt-123" value="Si" style="edgeLabel;html=1;align=center;verticalAlign=middle;resizable=0;points=[];sketch=1;hachureGap=4;jiggle=2;curveFitting=1;" vertex="1" connectable="0" parent="nHGxrbIbcNER2tS7pfmt-109">
          <mxGeometry x="0.0561" y="-1" relative="1" as="geometry">
            <mxPoint as="offset" />
          </mxGeometry>
        </mxCell>
        <mxCell id="nHGxrbIbcNER2tS7pfmt-104" value="VectorPos &amp;gt; max" style="rhombus;whiteSpace=wrap;html=1;strokeWidth=2;sketch=1;hachureGap=4;jiggle=2;curveFitting=1;" vertex="1" parent="WIyWlLk6GJQsqaUBKTNV-1">
          <mxGeometry x="-692.5" y="290" width="95" height="100" as="geometry" />
        </mxCell>
        <mxCell id="nHGxrbIbcNER2tS7pfmt-111" value="" style="edgeStyle=orthogonalEdgeStyle;rounded=0;sketch=1;hachureGap=4;jiggle=2;curveFitting=1;orthogonalLoop=1;jettySize=auto;html=1;dashed=1;" edge="1" parent="WIyWlLk6GJQsqaUBKTNV-1" source="nHGxrbIbcNER2tS7pfmt-106" target="nHGxrbIbcNER2tS7pfmt-110">
          <mxGeometry relative="1" as="geometry" />
        </mxCell>
        <mxCell id="nHGxrbIbcNER2tS7pfmt-125" value="Si" style="edgeLabel;html=1;align=center;verticalAlign=middle;resizable=0;points=[];sketch=1;hachureGap=4;jiggle=2;curveFitting=1;" vertex="1" connectable="0" parent="nHGxrbIbcNER2tS7pfmt-111">
          <mxGeometry x="-0.1132" relative="1" as="geometry">
            <mxPoint as="offset" />
          </mxGeometry>
        </mxCell>
        <mxCell id="nHGxrbIbcNER2tS7pfmt-113" value="" style="edgeStyle=orthogonalEdgeStyle;rounded=0;sketch=1;hachureGap=4;jiggle=2;curveFitting=1;orthogonalLoop=1;jettySize=auto;html=1;dashed=1;" edge="1" parent="WIyWlLk6GJQsqaUBKTNV-1" source="nHGxrbIbcNER2tS7pfmt-106" target="nHGxrbIbcNER2tS7pfmt-112">
          <mxGeometry relative="1" as="geometry" />
        </mxCell>
        <mxCell id="nHGxrbIbcNER2tS7pfmt-126" value="No" style="edgeLabel;html=1;align=center;verticalAlign=middle;resizable=0;points=[];sketch=1;hachureGap=4;jiggle=2;curveFitting=1;" vertex="1" connectable="0" parent="nHGxrbIbcNER2tS7pfmt-113">
          <mxGeometry x="-0.3655" y="-4" relative="1" as="geometry">
            <mxPoint as="offset" />
          </mxGeometry>
        </mxCell>
        <mxCell id="nHGxrbIbcNER2tS7pfmt-106" value="VectorPos &amp;gt; max2" style="rhombus;whiteSpace=wrap;html=1;strokeWidth=2;sketch=1;hachureGap=4;jiggle=2;curveFitting=1;" vertex="1" parent="WIyWlLk6GJQsqaUBKTNV-1">
          <mxGeometry x="-692.5" y="470" width="95" height="100" as="geometry" />
        </mxCell>
        <mxCell id="nHGxrbIbcNER2tS7pfmt-122" style="edgeStyle=orthogonalEdgeStyle;rounded=0;sketch=1;hachureGap=4;jiggle=2;curveFitting=1;orthogonalLoop=1;jettySize=auto;html=1;exitX=1;exitY=0.5;exitDx=0;exitDy=0;entryX=1;entryY=0;entryDx=0;entryDy=0;" edge="1" parent="WIyWlLk6GJQsqaUBKTNV-1" source="nHGxrbIbcNER2tS7pfmt-108" target="nHGxrbIbcNER2tS7pfmt-112">
          <mxGeometry relative="1" as="geometry">
            <Array as="points">
              <mxPoint x="-390" y="340" />
              <mxPoint x="-390" y="620" />
              <mxPoint x="-621" y="620" />
            </Array>
          </mxGeometry>
        </mxCell>
        <mxCell id="nHGxrbIbcNER2tS7pfmt-108" value="Remplazo max por VectorPos" style="whiteSpace=wrap;html=1;strokeWidth=2;sketch=1;hachureGap=4;jiggle=2;curveFitting=1;" vertex="1" parent="WIyWlLk6GJQsqaUBKTNV-1">
          <mxGeometry x="-530" y="310" width="120" height="60" as="geometry" />
        </mxCell>
        <mxCell id="nHGxrbIbcNER2tS7pfmt-110" value="Remplazo max2 por VectorPos" style="whiteSpace=wrap;html=1;strokeWidth=2;sketch=1;hachureGap=4;jiggle=2;curveFitting=1;" vertex="1" parent="WIyWlLk6GJQsqaUBKTNV-1">
          <mxGeometry x="-530" y="490" width="120" height="60" as="geometry" />
        </mxCell>
        <mxCell id="nHGxrbIbcNER2tS7pfmt-117" value="" style="edgeStyle=orthogonalEdgeStyle;rounded=0;sketch=1;hachureGap=4;jiggle=2;curveFitting=1;orthogonalLoop=1;jettySize=auto;html=1;dashed=1;" edge="1" parent="WIyWlLk6GJQsqaUBKTNV-1" source="nHGxrbIbcNER2tS7pfmt-112" target="nHGxrbIbcNER2tS7pfmt-116">
          <mxGeometry relative="1" as="geometry" />
        </mxCell>
        <mxCell id="nHGxrbIbcNER2tS7pfmt-128" value="Si" style="edgeLabel;html=1;align=center;verticalAlign=middle;resizable=0;points=[];sketch=1;hachureGap=4;jiggle=2;curveFitting=1;" vertex="1" connectable="0" parent="nHGxrbIbcNER2tS7pfmt-117">
          <mxGeometry x="-0.0974" y="3" relative="1" as="geometry">
            <mxPoint as="offset" />
          </mxGeometry>
        </mxCell>
        <mxCell id="nHGxrbIbcNER2tS7pfmt-119" style="edgeStyle=orthogonalEdgeStyle;rounded=0;sketch=1;hachureGap=4;jiggle=2;curveFitting=1;orthogonalLoop=1;jettySize=auto;html=1;exitX=1;exitY=0.5;exitDx=0;exitDy=0;entryX=1;entryY=0.5;entryDx=0;entryDy=0;dashed=1;" edge="1" parent="WIyWlLk6GJQsqaUBKTNV-1" source="nHGxrbIbcNER2tS7pfmt-112" target="nHGxrbIbcNER2tS7pfmt-102">
          <mxGeometry relative="1" as="geometry">
            <Array as="points">
              <mxPoint x="-310" y="700" />
              <mxPoint x="-310" y="220" />
            </Array>
          </mxGeometry>
        </mxCell>
        <mxCell id="nHGxrbIbcNER2tS7pfmt-127" value="No" style="edgeLabel;html=1;align=center;verticalAlign=middle;resizable=0;points=[];sketch=1;hachureGap=4;jiggle=2;curveFitting=1;" vertex="1" connectable="0" parent="nHGxrbIbcNER2tS7pfmt-119">
          <mxGeometry x="-0.886" y="4" relative="1" as="geometry">
            <mxPoint as="offset" />
          </mxGeometry>
        </mxCell>
        <mxCell id="nHGxrbIbcNER2tS7pfmt-112" value="Termine de recorrer?" style="rhombus;whiteSpace=wrap;html=1;strokeWidth=2;sketch=1;hachureGap=4;jiggle=2;curveFitting=1;" vertex="1" parent="WIyWlLk6GJQsqaUBKTNV-1">
          <mxGeometry x="-692.5" y="650" width="95" height="100" as="geometry" />
        </mxCell>
        <mxCell id="nHGxrbIbcNER2tS7pfmt-116" value="Informo max1 y max2" style="shape=document;whiteSpace=wrap;html=1;boundedLbl=1;strokeWidth=2;sketch=1;hachureGap=4;jiggle=2;curveFitting=1;" vertex="1" parent="WIyWlLk6GJQsqaUBKTNV-1">
          <mxGeometry x="-712.5" y="840" width="135" height="80" as="geometry" />
        </mxCell>
        <mxCell id="nHGxrbIbcNER2tS7pfmt-118" style="edgeStyle=orthogonalEdgeStyle;rounded=0;sketch=1;hachureGap=4;jiggle=2;curveFitting=1;orthogonalLoop=1;jettySize=auto;html=1;exitX=1;exitY=0.5;exitDx=0;exitDy=0;entryX=0.855;entryY=0.145;entryDx=0;entryDy=0;entryPerimeter=0;" edge="1" parent="WIyWlLk6GJQsqaUBKTNV-1" source="nHGxrbIbcNER2tS7pfmt-116" target="nHGxrbIbcNER2tS7pfmt-1">
          <mxGeometry relative="1" as="geometry">
            <Array as="points">
              <mxPoint x="-540" y="880" />
              <mxPoint x="-540" y="1670" />
              <mxPoint x="620" y="1670" />
              <mxPoint x="620" y="1175" />
            </Array>
          </mxGeometry>
        </mxCell>
        <mxCell id="nHGxrbIbcNER2tS7pfmt-121" style="edgeStyle=orthogonalEdgeStyle;rounded=0;sketch=1;hachureGap=4;jiggle=2;curveFitting=1;orthogonalLoop=1;jettySize=auto;html=1;exitX=0.5;exitY=1;exitDx=0;exitDy=0;entryX=0.583;entryY=0.12;entryDx=0;entryDy=0;entryPerimeter=0;" edge="1" parent="WIyWlLk6GJQsqaUBKTNV-1" source="nHGxrbIbcNER2tS7pfmt-110" target="nHGxrbIbcNER2tS7pfmt-112">
          <mxGeometry relative="1" as="geometry" />
        </mxCell>
      </root>
    </mxGraphModel>
  </diagram>
</mxfile>
